# xmcd
#
# Track frame offsets: 
#        150
#        26643
#        41864
#        57700
#        82962
#        104632
#        114924
#        134653
#        148966
#        168088
#        184619
#        200969
#        222894
#        242441
#
# Disc length: 3679 seconds
#
# Revision: 0
# Processed by: cddbd v1.4PL0 Copyright (c) Steve Scherf et al.
# Submitted via: ExactAudioCopy v0.90b4
#
DISCID=d50e5d0e
DTITLE=Van Morrison - North Wales Theatre 2000, disc 1
DYEAR=2000
DGENRE=Celtic
TTITLE0=Going Up The River
TTITLE1=Goin' Home > It's Tight Like That
TTITLE2=Tore Down A La Rimbaud
TTITLE3=Naked In The Jungle
TTITLE4=How Long Has This Been Going On ? > For Chet and Kenny
TTITLE5=Baby Please Don't Go
TTITLE6=Out Of Time
TTITLE7=Brown Eyed Girl
TTITLE8=Going Down Geneva > Brand New Cadillac
TTITLE9=Bring It On Home
TTITLE10=Precious Time > Let The Good Times Roll
TTITLE11=One Irish Rover
TTITLE12=Bright Side Of The Road
TTITLE13=Philosophers Stone > Oh Didn't He Ramble
EXTD=
EXTT0=
EXTT1=
EXTT2=
EXTT3=
EXTT4=
EXTT5=
EXTT6=
EXTT7=
EXTT8=
EXTT9=
EXTT10=
EXTT11=
EXTT12=
EXTT13=
PLAYORDER=
